<svg xmlns="http://www.w3.org/2000/svg" viewBox="0 0 18.96 18.96"><defs><style>.cls-1{fill:#fff;}</style></defs><g id="Camada_2" data-name="Camada 2"><g id="Layer_1" data-name="Layer 1"><path class="cls-1" d="M18.46,14.87a1.68,1.68,0,0,1,0,2.4l-1.19,1.19a1.68,1.68,0,0,1-2.4,0L9.48,13.07,4.09,18.46a1.68,1.68,0,0,1-2.4,0L.5,17.27a1.68,1.68,0,0,1,0-2.4L5.89,9.48.5,4.09a1.68,1.68,0,0,1,0-2.4L1.69.5a1.68,1.68,0,0,1,2.4,0L9.48,5.89,14.87.5a1.68,1.68,0,0,1,2.4,0l1.19,1.19a1.68,1.68,0,0,1,0,2.4L13.07,9.48Z"/></g></g></svg>