<svg width="39" height="39" viewBox="0 0 39 39" fill="none" xmlns="http://www.w3.org/2000/svg">
<circle cx="19.5" cy="19.5" r="19" stroke="white"/>
<g clip-path="url(#clip0_35_842)">
<path d="M9.5 18.125H6.875C6.392 18.125 6 18.517 6 19C6 19.483 6.392 19.875 6.875 19.875H9.5C9.983 19.875 10.375 19.483 10.375 19C10.375 18.517 9.983 18.125 9.5 18.125ZM20 9.375C20.483 9.375 20.875 8.983 20.875 8.5V5.875C20.875 5.392 20.483 5 20 5C19.517 5 19.125 5.392 19.125 5.875V8.5C19.125 8.983 19.517 9.375 20 9.375ZM28.4184 11.8075L30.2568 9.96909C30.5954 9.63048 30.5954 9.08182 30.2568 8.74322C29.9182 8.40461 29.3695 8.40461 29.0309 8.74322L27.1925 10.5816C26.8539 10.9202 26.8539 11.4689 27.1925 11.8075C27.5311 12.1461 28.0798 12.1461 28.4184 11.8075ZM12.4837 25.2913L10.6453 27.1297C10.3067 27.4683 10.3067 28.0169 10.6453 28.3555C10.984 28.6941 11.5326 28.6941 11.8712 28.3555L13.7096 26.5171C14.0482 26.1785 14.0482 25.6299 13.7096 25.2913C13.371 24.9527 12.8224 24.9526 12.4837 25.2913ZM11.957 12.1943C12.2991 12.5364 12.853 12.5364 13.1942 12.1943C13.5355 11.8521 13.5355 11.2983 13.1942 10.957L11.3384 9.10026C10.9963 8.75813 10.4424 8.75813 10.1011 9.10026C9.759 9.44239 9.759 9.99626 10.1011 10.3375L11.957 12.1943ZM20 28.625C19.517 28.625 19.125 29.017 19.125 29.5V32.125C19.125 32.608 19.517 33 20 33C20.483 33 20.875 32.608 20.875 32.125V29.5C20.875 29.017 20.483 28.625 20 28.625ZM28.043 25.8057C27.7009 25.4636 27.147 25.4636 26.8057 25.8057C26.4636 26.1479 26.4636 26.7017 26.8057 27.043L28.6616 28.8989C29.0037 29.241 29.5576 29.241 29.8989 28.8989C30.2401 28.5567 30.241 28.0029 29.8989 27.6616L28.043 25.8057ZM33.125 18.125H30.5C30.017 18.125 29.625 18.517 29.625 19C29.625 19.483 30.017 19.875 30.5 19.875H33.125C33.608 19.875 34 19.483 34 19C34 18.517 33.608 18.125 33.125 18.125ZM20 11.1197C15.6477 11.1197 12.1197 14.6477 12.1197 19C12.1197 23.3523 15.6477 26.8803 20 26.8803C24.3523 26.8803 27.8803 23.3523 27.8803 19C27.8803 14.6477 24.3523 11.1197 20 11.1197ZM20 25.1233C16.6181 25.1233 13.8767 22.3819 13.8767 19C13.8767 15.6181 16.6181 12.8767 20 12.8767C23.3819 12.8767 26.1233 15.6181 26.1233 19C26.1233 22.3819 23.3819 25.1233 20 25.1233Z" fill="white"/>
</g>
<defs>
<clipPath id="clip0_35_842">
<rect width="28" height="28" fill="white" transform="translate(6 5)"/>
</clipPath>
</defs>
</svg>
