<svg width="33" height="42" viewBox="0 0 33 42" fill="none" xmlns="http://www.w3.org/2000/svg">
<path d="M7.34375 11.7592H24.9688C24.8127 9.92324 24.0783 8.52793 22.4076 8.07812C22.3709 8.06895 22.325 8.05059 22.2883 8.04141C21.1867 7.7293 20.3789 7.35293 20.3789 6.14121V4.25019C20.3789 1.90937 18.4971 0 16.1562 0C13.8154 0 11.9336 1.90019 11.9336 4.25019V6.14121C11.9336 7.34375 11.1258 7.72012 10.0242 8.03223C9.9875 8.04141 9.9416 8.06895 9.8957 8.07812C8.225 8.52793 7.51816 9.92324 7.34375 11.7592ZM16.1562 2.9834C16.8539 2.9834 17.423 3.55254 17.423 4.25019C17.423 4.95703 16.8539 5.51699 16.1562 5.51699C15.4586 5.51699 14.8895 4.94785 14.8895 4.25019C14.8895 3.55254 15.4586 2.9834 16.1562 2.9834Z" fill="white"/>
<path d="M29.7973 2.85449H23.041V4.18555C23.041 5.15859 23.8396 5.88379 24.7852 5.88379H28.2C28.815 5.88379 29.3107 6.40703 29.3383 7.03125L29.3475 37.0672C29.3199 37.6547 28.8609 38.132 28.2918 38.1779L4.0207 38.1871C3.45156 38.1412 3.00176 37.6639 2.96504 37.0764L2.95586 7.03125C2.9834 6.40703 3.49746 5.88379 4.10332 5.88379H7.52734C8.47285 5.88379 9.27148 5.15859 9.27148 4.18555V2.85449H2.51523C1.1291 2.85449 0 4.05703 0 5.47988V38.5635C0 39.9863 1.1291 41.1338 2.51523 41.1338H16.1562H29.7973C31.1834 41.1338 32.3125 39.9863 32.3125 38.5635V5.47988C32.3125 4.05703 31.1834 2.85449 29.7973 2.85449Z" fill="white"/>
<path d="M16.1562 14.6963H5.875V16.165H16.1562V14.6963Z" fill="white"/>
<path d="M20.5625 23.5088H5.875V24.9775H20.5625V23.5088Z" fill="white"/>
<path d="M17.7168 32.3213H5.875V33.79H17.7168V32.3213Z" fill="white"/>
<path d="M22.0312 27.915H5.875V29.3838H22.0312V27.915Z" fill="white"/>
<path d="M24.9688 19.1025H5.875V20.5713H24.9688V19.1025Z" fill="white"/>
</svg>
