<svg width="33" height="33" viewBox="0 0 33 33" fill="none" xmlns="http://www.w3.org/2000/svg">
<path d="M16.5 0.400391C7.61 0.400391 0.399995 7.61039 0.399995 16.5004C0.399995 19.3704 1.16999 22.0298 2.49999 24.3398L0.399995 31.6898C0.329995 31.8998 0.399449 32.1798 0.539449 32.3898C0.749449 32.5998 1.02945 32.6004 1.23945 32.6004L8.93945 30.7109C11.1794 31.9009 13.77 32.6004 16.5 32.6004C25.39 32.6004 32.6 25.3904 32.6 16.5004C32.6 7.61039 25.39 0.400391 16.5 0.400391ZM16.5 1.80039C24.62 1.80039 31.2 8.38039 31.2 16.5004C31.2 24.6204 24.62 31.2004 16.5 31.2004C13.91 31.2004 11.4605 30.5009 9.36054 29.3109C9.22054 29.2409 9.00972 29.1698 8.86972 29.2398L2.14999 30.9201L3.89999 24.4807C3.96999 24.2707 3.90027 24.1301 3.83027 23.9201C2.57027 21.7501 1.79999 19.2304 1.79999 16.5004C1.79999 8.38039 8.37999 1.80039 16.5 1.80039ZM11.6793 8.09219C11.548 8.08344 11.4605 8.10039 11.4605 8.10039H10.6197C10.1997 8.10039 9.57054 8.24039 9.01054 8.80039C8.66054 9.15039 7.39999 10.4104 7.39999 12.6504C7.39999 15.0304 9.00972 17.0601 9.21972 17.2701C9.21972 17.2701 9.49999 17.6209 9.84999 18.1109C10.2 18.6009 10.6897 19.1609 11.3197 19.8609C12.5797 21.1909 14.3297 22.7298 16.5697 23.6398C17.5497 24.0598 18.3897 24.3404 19.0197 24.5504C20.1397 24.9004 21.1905 24.8309 21.9605 24.7609C22.5205 24.6909 23.1503 24.4098 23.7803 23.9898C24.4103 23.5698 25.0397 23.0807 25.3197 22.3807C25.5297 21.8207 25.5997 21.3309 25.6697 20.9109V20.3504C25.6697 20.1404 25.6005 20.1409 25.4605 19.8609C25.1105 19.3009 24.7594 19.3009 24.3394 19.1609C24.1294 19.0209 23.4994 18.7409 22.9394 18.4609C22.3094 18.1809 21.8197 17.9009 21.4697 17.7609C21.2597 17.6909 20.9803 17.5501 20.6303 17.6201C20.2803 17.6901 19.9297 17.9004 19.7197 18.2504C19.5097 18.5304 18.7405 19.5098 18.4605 19.7898L18.3895 19.7201C18.1094 19.5801 17.69 19.4409 17.2 19.1609C16.64 18.8809 16.0094 18.4609 15.2394 17.7609C14.1194 16.7809 13.3494 15.5901 13.1394 15.1701C13.3494 14.8901 13.6297 14.6104 13.7697 14.4004C13.8397 14.3304 13.8966 14.2598 13.9447 14.1898C13.9928 14.1198 14.0328 14.0507 14.0678 13.9807C14.1378 13.8407 14.1905 13.7009 14.2605 13.5609C14.5405 13.0709 14.4005 12.5107 14.2605 12.2307C14.2605 12.2307 14.19 12.0209 14.05 11.8109C13.98 11.6009 13.84 11.2501 13.7 10.9701C13.42 10.3401 13.14 9.64012 13 9.22012C12.79 8.73012 12.5105 8.37984 12.1605 8.23984C11.9855 8.13484 11.8105 8.10094 11.6793 8.09219ZM10.6197 9.50039H11.3894H11.5303C11.5303 9.50039 11.5997 9.57066 11.6697 9.78066C11.8097 10.2007 12.1597 10.9007 12.3697 11.5307C12.5097 11.8107 12.6497 12.1601 12.7197 12.3701C12.7897 12.5801 12.8603 12.7209 12.9303 12.8609C12.9303 12.9309 13 12.9307 13 12.9307C12.86 13.2107 12.86 13.2798 12.65 13.4898C12.44 13.7698 12.1594 14.0498 12.0894 14.1898C12.0194 14.3298 11.8097 14.4704 11.6697 14.7504C11.5297 15.0304 11.6005 15.5201 11.8105 15.8701C12.0905 16.2901 12.9305 17.6907 14.2605 18.8807C15.1005 19.6507 15.87 20.1401 16.5 20.4201C17.13 20.7701 17.6205 20.9107 17.7605 20.9807C18.0405 21.1207 18.3197 21.1898 18.6697 21.1898C19.0197 21.1898 19.3005 20.9104 19.5105 20.7004C19.7905 20.4204 20.4894 19.5801 20.8394 19.0201L20.9803 19.0898C20.9803 19.0898 21.1897 19.1604 21.4697 19.3004C21.7497 19.4404 22.0303 19.5801 22.3803 19.7201C23.0103 20.0001 23.5703 20.2801 23.7803 20.4201L24.2 20.6307V20.8398C24.2 21.1198 24.1294 21.5409 23.9894 21.9609C23.9194 22.1709 23.5003 22.5901 23.0803 22.8701C22.5903 23.1501 22.0297 23.3607 21.8197 23.4307C21.1897 23.5007 20.4205 23.5698 19.5105 23.2898C18.9505 23.0798 18.18 22.8704 17.2 22.4504C15.24 21.6104 13.6294 20.2104 12.4394 18.9504C11.8794 18.3204 11.3894 17.7598 11.0394 17.3398C10.6894 16.9198 10.5505 16.6404 10.4105 16.5004C10.1305 16.2204 8.79999 14.4001 8.79999 12.7201C8.79999 10.9701 9.64054 10.2707 10.0605 9.78066C10.2705 9.50066 10.5497 9.50039 10.6197 9.50039Z" fill="white"/>
</svg>
