<svg width="35" height="35" viewBox="0 0 35 35" fill="none" xmlns="http://www.w3.org/2000/svg">
<path d="M17.5 1.40039C8.61653 1.40039 1.40002 8.6169 1.40002 17.5004C1.40002 26.3839 8.61653 33.6004 17.5 33.6004C26.3835 33.6004 33.6 26.3839 33.6 17.5004C33.6 8.6169 26.3835 1.40039 17.5 1.40039ZM17.5 2.80039C25.6269 2.80039 32.2 9.37351 32.2 17.5004C32.2 25.6273 25.6269 32.2004 17.5 32.2004C9.37314 32.2004 2.80002 25.6273 2.80002 17.5004C2.80002 9.37352 9.37314 2.80039 17.5 2.80039ZM23.8615 9.825C23.3827 9.825 22.8448 9.9359 22.2155 10.1627C21.2383 10.5148 9.74454 15.3949 8.43694 15.95C7.68934 16.2678 6.29729 16.859 6.29729 18.2688C6.29729 19.2033 6.84488 19.8716 7.92288 20.2566C8.50248 20.4631 9.87907 20.8804 10.6778 21.1002C11.0166 21.1933 11.3766 21.241 11.7469 21.241C12.4714 21.241 13.2005 21.0605 13.7717 20.742C13.7668 20.8596 13.77 20.9785 13.784 21.0975C13.8701 21.8325 14.3233 22.5238 14.9953 22.9473C15.4349 23.2245 19.0256 25.6303 19.5618 26.0125C20.315 26.5508 21.1476 26.8355 21.968 26.8355C23.536 26.8355 24.0621 25.2166 24.3155 24.4389C24.683 23.3098 26.0591 14.1279 26.2145 12.5088C26.3202 11.3993 25.8578 10.4857 24.9772 10.0643C24.6475 9.90536 24.271 9.825 23.8615 9.825ZM23.8615 11.225C24.054 11.225 24.2259 11.2568 24.3715 11.3275C24.7026 11.4864 24.8711 11.8407 24.82 12.3762C24.6506 14.1423 23.2778 23.1067 22.9852 24.0055C22.7346 24.7741 22.4706 25.4355 21.968 25.4355C21.4654 25.4355 20.9163 25.2594 20.3752 24.8723C19.8341 24.4859 16.2409 22.0762 15.7418 21.7619C15.3043 21.4861 14.8413 20.7986 15.493 20.1336C16.0299 19.5862 20.1025 15.6334 20.4504 15.2855C20.7094 15.0258 20.5883 14.7127 20.3342 14.7127C20.2467 14.7127 20.1419 14.7496 20.0334 14.8385C19.6078 15.1864 13.6744 19.1568 13.1606 19.476C12.8204 19.6874 12.2936 19.8397 11.7469 19.8397C11.5138 19.8397 11.2778 19.8117 11.051 19.7494C10.2614 19.5317 8.92516 19.1263 8.39456 18.9373C7.88426 18.7553 7.69866 18.5809 7.69866 18.2687C7.69866 17.8249 8.32508 17.5186 8.98518 17.2379C9.68238 16.9418 21.7463 11.8188 22.6899 11.4793C23.1267 11.3211 23.5262 11.225 23.8615 11.225Z" fill="white"/>
</svg>
