<svg xmlns="http://www.w3.org/2000/svg" viewBox="0 0 21.67 18.96"><defs><style>.cls-1{fill:#fff;}</style></defs><g id="Camada_2" data-name="Camada 2"><g id="Layer_1" data-name="Layer 1"><path class="cls-1" d="M0,2.71V.77A.78.78,0,0,1,.77,0H20.89a.78.78,0,0,1,.78.77V2.71a.77.77,0,0,1-.78.77H.77A.77.77,0,0,1,0,2.71Zm0,7.74V8.51a.78.78,0,0,1,.77-.77H20.89a.78.78,0,0,1,.78.77v1.94a.78.78,0,0,1-.78.77H.77A.78.78,0,0,1,0,10.45Zm0,7.74V16.25a.77.77,0,0,1,.77-.77H20.89a.77.77,0,0,1,.78.77v1.94a.78.78,0,0,1-.78.77H.77A.78.78,0,0,1,0,18.19Z"/></g></g></svg>